<?xml version="1.0" encoding="UTF-8"?><svg id="Logos" xmlns="http://www.w3.org/2000/svg" viewBox="0 0 475 120"><defs><style>.cls-1{fill:#5ce500;}.cls-2{fill:#fff;}</style></defs><g><path class="cls-2" d="M75.13073,13.90742h-13.146V49.50843h5.83299v-13.97205h7.36101c7.965,0,12.35199-3.89099,12.35199-10.95898,0-3.20801-1.20999-10.66998-12.39999-10.66998Zm6.46899,10.76801c0,4.01495-2.08299,5.65198-7.19099,5.65198h-6.591v-11.16302h7.36101c4.323,0,6.42099,1.80402,6.42099,5.51105Zm23.29401-1.10504l.44099,.21301-.98999,5.26202-.681-.21002c-.558-.172-1.125-.25897-1.68501-.25897-5.44899,0-5.894,4.33997-5.894,9.58899v11.34302h-5.40199V23.36543h5.065v3.15399c1.37799-2.12103,3.04599-3.216,5.23999-3.48499,1.438-.16602,2.839,.02997,3.90601,.53595Zm13.278-.73199c-4.252,0-7.65601,1.61902-9.849,4.68103-2.302,3.216-2.64301,6.99701-2.64301,8.96399,0,8.26202,4.901,13.599,12.492,13.599,9.22299,0,12.495-7.42999,12.495-13.79102,0-3.65997-1.08501-6.98096-3.05-9.35297-2.226-2.68201-5.493-4.10004-9.44499-4.10004Zm0,22.41901c-4.22701,0-6.853-3.36298-6.853-8.77399,0-5.46899,2.62599-8.86798,6.853-8.86798,4.194,0,6.90199,3.44098,6.90199,8.77295,0,5.46906-2.646,8.86902-6.90199,8.86902Zm57.88898-21.68701l.44101,.21301-.99301,5.26202-.68198-.21002c-.55502-.172-1.12201-.25897-1.68402-.25897-5.448,0-5.88998,4.33997-5.88998,9.58899v11.34302h-5.40201V23.36543h5.06601v3.15399c1.37698-2.12103,3.04599-3.216,5.23999-3.48499,1.43701-.16602,2.836,.02997,3.90399,.53595Zm19.39902,17.55701l-.10001,.28699c-1.12701,3.21405-3.82199,3.888-5.88699,3.888-4.08701,0-6.71802-2.71295-6.974-7.12h18.48398l.06802-.513c.082-.60498,.06799-1.45697,.05899-2.07996-.00101-.17004-.00601-.323-.00601-.47205-.26999-7.31799-5.03998-12.23395-11.871-12.23395-3.98999,0-7.26099,1.56696-9.45999,4.53595-1.77701,2.401-2.798,5.72302-2.798,9.112,0,8.078,5.02402,13.50702,12.49802,13.50702,5.78198,0,9.76398-2.93896,11.216-8.27301l.17398-.638h-5.40298Zm-12.78201-7.63397c.45401-3.62201,2.935-5.92401,6.45901-5.92401,2.69299,0,5.88098,1.56598,6.327,5.92401h-12.78601Zm-30.664-7.93402c-1.74298-1.80701-4.07199-2.72101-6.94998-2.72101-7.925,0-11.533,6.974-11.533,13.453,0,6.64899,3.56599,13.35901,11.533,13.35901,2.65799,0,5.03299-.97797,6.74399-2.737-.01901,1.151-.04901,2.25-.08099,2.71698-.29401,4.31305-2.366,6.32104-6.52,6.32104-2.25999,0-4.853-.802-5.35399-3.05402l-.11-.49701-5.323,.00098,.086,.71301c.55699,4.60901,4.60399,7.47302,10.558,7.47302,5.22498,0,8.94299-1.96899,10.75-5.69,.87198-1.79303,1.31299-4.40698,1.31299-7.76501V23.36543h-5.11301v2.19397Zm-6.61198,19.26703c-1.88901,0-6.27701-.85602-6.27701-8.77405,0-5.20398,2.46001-8.43695,6.41901-8.43695,3.05901,0,6.32698,2.216,6.32698,8.43695,0,5.492-2.41898,8.77405-6.46898,8.77405Zm80.657-3.18805c0,4.15704-3.45102,8.35205-11.16101,8.35205-6.81799,0-10.87601-2.953-11.42099-8.31201l-.05801-.55103h5.31601l.08099,.40002c.65201,3.22198,3.72101,3.89801,6.18301,3.89801,2.69598,0,5.577-.87,5.577-3.30603,0-1.23499-.80402-2.11096-2.38699-2.60498-.94-.27899-2.09402-.604-3.315-.94501-2.103-.58801-4.27902-1.20099-5.61801-1.66199-3.31601-1.18799-5.21899-3.50104-5.21899-6.34601,0-5.271,5.13199-7.63098,10.215-7.63098,6.79901,0,10.31699,2.56097,10.759,7.82697l.04498,.54303-5.23898-.00403-.073-.41498c-.52701-3.03198-3.54102-3.48499-5.293-3.48499-1.51102,0-5.02701,.26996-5.02701,2.776,0,1.13898,.97299,1.97595,2.97601,2.55695,.59698,.16803,1.487,.39606,2.51398,.66205,2.13303,.552,4.79001,1.24097,6.12701,1.703,3.33099,1.17096,5.01801,3.37195,5.01801,6.54395Zm24.94901,0c0,4.15704-3.45102,8.35205-11.15802,8.35205-6.82001,0-10.87799-2.953-11.423-8.31201l-.05698-.55103h5.31699l.07901,.40002c.651,3.22198,3.72198,3.89801,6.18399,3.89801,2.69598,0,5.57501-.87,5.57501-3.30603,0-1.23499-.80402-2.11096-2.38501-2.60498-.94202-.27899-2.09601-.604-3.31799-.94501-2.10001-.58801-4.276-1.20099-5.61401-1.66199-3.31699-1.18799-5.21899-3.50104-5.21899-6.34601,0-5.271,5.13-7.63098,10.21399-7.63098,6.79901,0,10.31601,2.56097,10.75702,7.82697l.04599,.54303-5.23801-.00403-.073-.41498c-.52798-3.03198-3.54001-3.48499-5.29401-3.48499-1.509,0-5.026,.26996-5.026,2.776,0,1.13898,.974,1.97595,2.97501,2.55695,.59799,.16803,1.48502,.39606,2.51599,.66205,2.13202,.552,4.78802,1.24097,6.12701,1.703,3.32599,1.17096,5.01501,3.37195,5.01501,6.54395Z"/><path class="cls-2" d="M255.28198,26.16934c-2.01429,0-3.68265-1.56684-3.68265-3.72343,0-2.1569,1.66836-3.72343,3.68265-3.72343s3.68295,1.56654,3.68295,3.72343c0,2.15659-1.66866,3.72343-3.68295,3.72343Zm0-6.81602c-1.66836,0-3.01133,1.28163-3.01133,3.09259s1.34296,3.09259,3.01133,3.09259c1.66866,0,3.01131-1.28163,3.01131-3.09259s-1.34265-3.09259-3.01131-3.09259Zm-.42721,3.78446v1.24114h-1.09854v-3.90652h1.83119c.87467,0,1.44448,.50848,1.44448,1.3632,0,.6103-.28522,1.01727-.75291,1.18011l.8949,1.3632h-1.2203l-.75289-1.24114h-.34594Zm.61031-1.74993h-.61031v.87497h.61031c.32568,0,.50877-.16285,.50877-.42721,0-.26466-.1831-.44776-.50877-.44776Z"/></g><path class="cls-1" d="M48.54951,40.73483c0,.573-.405,1.271-.89799,1.55402l-12.507,7.22198V21.65384L11.02152,7.7258,23.52852,.5068c.493-.28595,1.304-.28595,1.798,0l23.22299,13.409v26.81903Zm-18.771-15.987L13.25852,15.2048c-.494-.284-1.301-.284-1.79601,0L.29852,21.65182l17.423,10.06,.003,20.12201,11.15601-6.44598c.495-.28601,.89799-.98602,.89799-1.55603V24.74783ZM.29852,41.77279l12.05399,6.96301v-13.92999L.29852,41.77279Z"/><g><path class="cls-2" d="M64.89435,90.46547l17.67188-15.96191h3.81934l-18.69824,16.81689,19.1543,18.18506h-3.81934l-18.12793-16.98828v16.98828h-2.90723v-35.00195h2.90723v15.96191Z"/><path class="cls-2" d="M98.41681,107.51039c2.8501,0,4.95898-.68408,7.12598-2.5083v2.79346c-1.88184,1.53906-4.38965,2.22314-7.35449,2.22314-7.06836,0-11.7998-5.0166-11.7998-12.94092,0-7.80957,4.21777-13.39648,10.94531-13.39648,6.6123,0,10.0332,5.0166,10.0332,12.37061v1.02588h-18.18555c0,6.84082,3.99023,10.43262,9.23535,10.43262Zm-9.12109-12.76953h15.33496c-.17139-4.44678-2.28027-8.55127-7.29688-8.55127-4.16211,0-7.35449,3.07861-8.03809,8.55127Z"/><path class="cls-2" d="M111.46173,84.19448h2.85059v4.04736c1.53906-2.39404,4.50342-4.56055,8.09473-4.56055,5.75781,0,8.7793,3.70557,8.7793,9.06445v16.75977h-2.79346v-16.36084c0-3.93359-1.99561-6.84082-6.49854-6.84082-3.47754,0-6.32812,2.45117-7.58203,5.47266v17.729h-2.85059v-25.31104Z"/><path class="cls-2" d="M154.22443,105.74282c-1.4248,2.1665-4.38965,4.27588-7.86719,4.27588-7.46777,0-11.05859-6.15674-11.05859-13.16846,0-7.01221,3.59082-13.16895,11.05859-13.16895,3.47754,0,6.44238,2.10938,7.86719,4.27539v-15.50586h2.79346v37.05469h-2.79346v-3.7627Zm0-14.42236c-1.70996-3.24951-4.56055-5.0166-7.63867-5.0166-5.30176,0-8.4375,4.44629-8.4375,10.54639,0,6.09961,3.13574,10.5459,8.4375,10.5459,3.07812,0,5.92871-1.76709,7.63867-5.0166v-11.05908Z"/><path class="cls-2" d="M172.54865,110.01869c-6.66992,0-11.17383-5.35889-11.17383-13.16846,0-7.81006,4.50391-13.16895,11.17383-13.16895,6.72656,0,11.23047,5.35889,11.23047,13.16895,0,7.80957-4.50391,13.16846-11.23047,13.16846Zm0-23.8291c-5.0166,0-8.32324,4.27588-8.32324,10.66064s3.30664,10.66016,8.32324,10.66016c5.07324,0,8.37988-4.27539,8.37988-10.66016s-3.30664-10.66064-8.37988-10.66064Z"/><path class="cls-2" d="M195.91681,95.70961v-21.20605h2.90723v20.80713c0,8.20898,4.44629,12.02881,10.48926,12.02881s10.5459-3.81982,10.5459-12.02881v-20.80713h2.90771v21.20605c0,9.63428-5.92871,14.30908-13.45361,14.30908s-13.39648-4.6748-13.39648-14.30908Z"/><path class="cls-2" d="M232.00958,109.50551h-2.90723v-35.00195h2.90723v35.00195Z"/><path class="cls-2" d="M240.0257,86.24184c-2.02002,0-3.69287-1.5708-3.69287-3.7334,0-2.16211,1.67285-3.7334,3.69287-3.7334s3.69287,1.57129,3.69287,3.7334c0,2.1626-1.67285,3.7334-3.69287,3.7334Zm0-6.83398c-1.67285,0-3.01904,1.28516-3.01904,3.10059,0,1.81592,1.34619,3.10107,3.01904,3.10107s3.01904-1.28516,3.01904-3.10107c0-1.81543-1.34619-3.10059-3.01904-3.10059Zm-.42822,3.79443v1.24463h-1.10156v-3.91699h1.83594c.87695,0,1.44824,.50977,1.44824,1.3667,0,.61182-.28516,1.02002-.75488,1.18311l.89746,1.36719h-1.22363l-.75488-1.24463h-.34668Zm.61182-1.75439h-.61182v.87695h.61182c.32666,0,.51025-.16309,.51025-.42822s-.18359-.44873-.51025-.44873Z"/><path class="cls-2" d="M271.92462,75.07338c-.74121-.39893-1.59668-.62695-2.56543-.62695-2.67969,0-4.61719,1.93799-4.61719,5.47266v4.27539h5.92871v2.45117h-5.92871v22.85986h-2.79395v-22.85986h-4.10449v-2.45117h4.10449v-4.56055c0-4.61768,3.02148-7.6958,7.12598-7.6958,1.08301,0,1.99512,.1709,2.85059,.5127v2.62256Z"/><path class="cls-2" d="M282.19025,110.01869c-6.66992,0-11.17383-5.35889-11.17383-13.16846,0-7.81006,4.50391-13.16895,11.17383-13.16895,6.72656,0,11.22998,5.35889,11.22998,13.16895,0,7.80957-4.50342,13.16846-11.22998,13.16846Zm0-23.8291c-5.0166,0-8.32324,4.27588-8.32324,10.66064s3.30664,10.66016,8.32324,10.66016c5.07324,0,8.37988-4.27539,8.37988-10.66016s-3.30664-10.66064-8.37988-10.66064Z"/><path class="cls-2" d="M309.60675,86.81703c-.68408-.28516-1.42529-.45605-2.3374-.45605-3.07812,0-5.5293,2.22314-6.72656,5.47266v17.67188h-2.85059v-25.31104h2.85059v4.04736c1.13965-2.5083,3.70508-4.56055,6.84082-4.56055,.96875,0,1.65332,.1709,2.22314,.34229v2.79346Z"/><path class="cls-2" d="M338.16388,74.50356l13.85254,35.00195h-2.90723l-4.56055-11.51562h-15.50586l-4.50391,11.51562h-2.90723l13.85254-35.00195h2.67969Zm-8.0957,20.86426h13.4541l-6.72656-17.10205-6.72754,17.10205Z"/><path class="cls-2" d="M355.1756,84.19448h2.85059v4.04736c1.53906-2.39404,4.50391-4.56055,8.09473-4.56055,5.75781,0,8.7793,3.70557,8.7793,9.06445v16.75977h-2.79297v-16.36084c0-3.93359-1.99512-6.84082-6.49902-6.84082-3.47754,0-6.32812,2.45117-7.58203,5.47266v17.729h-2.85059v-25.31104Z"/><path class="cls-2" d="M397.71076,105.28676c-1.42529,2.10938-4.33301,4.16162-7.81006,4.16162-7.354,0-10.88818-6.09961-10.88818-12.8833,0-6.78418,3.53418-12.88379,10.88818-12.88379,3.47705,0,6.38477,2.05225,7.81006,4.21875v-3.70557h2.79297v23.48682c0,8.37988-5.58643,12.02832-11.62891,12.02832-3.19238,0-6.04297-.96875-7.92383-2.39404v-3.24951c2.50781,2.28027,5.1875,3.07812,7.92383,3.07812,4.95898,0,8.83594-2.96387,8.83594-9.29199v-2.56543Zm0-14.08057c-1.65332-3.13525-4.50391-4.90234-7.52539-4.90234-5.24414,0-8.32227,4.27539-8.32227,10.26123,0,6.04248,3.07812,10.31836,8.32227,10.31836,3.02148,0,5.87207-1.82422,7.52539-4.90283v-10.77441Z"/><path class="cls-2" d="M425.73126,109.50551h-2.79297v-4.04736c-1.53906,2.39404-4.44629,4.56055-8.03809,4.56055-5.75781,0-8.7793-3.70557-8.7793-9.06396v-16.76025h2.79395v16.36084c0,3.93359,1.99512,6.84082,6.49805,6.84082,3.47754,0,6.27148-2.45117,7.52539-5.47266v-17.729h2.79297v25.31104Z"/><path class="cls-2" d="M434.35333,109.50551h-2.85059v-37.05469h2.85059v37.05469Z"/><path class="cls-2" d="M454.43439,91.94741c0-3.42041-2.39453-5.64355-6.27051-5.64355-2.90723,0-5.30176,.85498-7.354,2.22314v-2.73633c1.71045-1.14014,4.50342-2.10938,7.63916-2.10938,5.3584,0,8.72168,3.07861,8.72168,8.09521v17.729h-2.73633v-2.39453c-1.08301,1.31152-3.87598,2.79346-7.01172,2.79346-5.13086,0-9.34912-2.96436-9.34912-7.81006,0-4.67432,4.21826-7.75293,9.46338-7.75293,3.02148,0,5.75781,1.42529,6.89746,2.67969v-5.07373Zm0,8.55127c-.79785-2.1665-3.64844-3.7627-6.72656-3.7627-3.5918,0-6.89795,1.76709-6.89795,5.3584,0,3.5918,3.30615,5.41602,6.89795,5.41602,3.07812,0,5.92871-1.59619,6.72656-3.7627v-3.24902Z"/><path class="cls-2" d="M474.70343,86.81703c-.68408-.28516-1.42529-.45605-2.3374-.45605-3.07812,0-5.5293,2.22314-6.72656,5.47266v17.67188h-2.85059v-25.31104h2.85059v4.04736c1.13965-2.5083,3.70508-4.56055,6.84082-4.56055,.96875,0,1.65332,.1709,2.22314,.34229v2.79346Z"/></g></svg>