<svg  viewBox="0 0 5660 3931" fill="none" xmlns="http://www.w3.org/2000/svg">
<path d="M1198.57 596.749C1198.57 926.324 931.399 1193.5 601.823 1193.5C272.248 1193.5 5.07422 926.324 5.07422 596.749C5.07422 267.174 272.248 0 601.823 0C931.399 0 1198.57 267.174 1198.57 596.749Z" fill="currentColor"/>
<circle cx="3035.75" cy="617.751" r="596.749" transform="rotate(-90 3035.75 617.751)" fill="currentColor"/>
<path d="M3035.75 2736.81C3365.32 2736.81 3632.5 3003.99 3632.5 3333.56C3632.5 3663.14 3365.32 3930.31 3035.75 3930.31C2706.17 3930.31 2439 3663.14 2439 3333.56C2439 3003.99 2706.17 2736.81 3035.75 2736.81Z" fill="currentColor"/>
<circle cx="596.749" cy="1964.8" r="596.749" fill="currentColor"/>
<path d="M1193.5 3332.87C1193.5 3662.44 926.324 3929.62 596.749 3929.62C267.174 3929.62 0 3662.44 0 3332.87C0 3003.29 267.174 2736.12 596.749 2736.12C926.324 2736.12 1193.5 3003.29 1193.5 3332.87Z" fill="currentColor"/>
<circle cx="5062.46" cy="617.751" r="596.749" transform="rotate(-90 5062.46 617.751)" fill="currentColor"/>
<circle cx="5062.46" cy="3333.56" r="596.749" transform="rotate(-90 5062.46 3333.56)" fill="currentColor"/>
</svg>
