<?xml version="1.0" standalone="no"?>
<!DOCTYPE svg PUBLIC "-//W3C//DTD SVG 20010904//EN"
 "http://www.w3.org/TR/2001/REC-SVG-20010904/DTD/svg10.dtd">
<svg version="1.0" xmlns="http://www.w3.org/2000/svg"
 width="640.000000pt" height="640.000000pt" viewBox="0 0 640.000000 640.000000"
 preserveAspectRatio="xMidYMid meet">
<metadata>
Created by potrace 1.14, written by Peter Selinger 2001-2017
</metadata>
<g transform="translate(0.000000,640.000000) scale(0.100000,-0.100000)"
fill="#000000" stroke="none">
<path d="M0 3200 l0 -3200 3200 0 3200 0 0 3200 0 3200 -3200 0 -3200 0 0
-3200z m2687 2598 c-4 -95 -7 -343 -7 -550 0 -345 -1 -378 -17 -394 -15 -15
-18 -41 -21 -173 -3 -113 -7 -160 -18 -175 -10 -15 -14 -52 -14 -135 0 -92 -3
-118 -16 -133 -10 -10 -19 -41 -22 -70 -3 -29 -11 -62 -18 -73 -8 -11 -14 -33
-14 -49 0 -16 -6 -37 -14 -45 -9 -10 -17 -46 -20 -90 -3 -46 -11 -80 -20 -90
-10 -11 -16 -36 -16 -67 0 -44 -4 -54 -35 -84 -28 -27 -35 -42 -35 -71 0 -20
-7 -42 -15 -49 -8 -7 -15 -26 -15 -42 0 -16 -9 -41 -20 -55 -16 -21 -20 -41
-20 -107 -1 -55 -5 -87 -15 -100 -8 -11 -15 -33 -15 -50 0 -16 -7 -38 -16 -48
-10 -10 -19 -41 -22 -70 -3 -29 -11 -62 -18 -73 -10 -13 -14 -51 -14 -119 0
-71 -4 -104 -14 -115 -11 -13 -15 -88 -18 -399 -3 -357 -2 -384 15 -393 11 -6
17 -22 17 -43 0 -18 7 -41 15 -52 8 -10 15 -26 15 -35 0 -9 9 -28 20 -42 11
-14 20 -32 20 -40 0 -8 7 -20 15 -27 8 -7 15 -27 15 -45 0 -18 8 -43 19 -56
10 -13 20 -33 22 -44 3 -11 13 -21 24 -23 24 -4 245 -221 245 -240 0 -8 16
-33 35 -56 19 -24 35 -50 35 -58 0 -9 7 -21 15 -28 8 -7 15 -20 15 -30 0 -19
92 -110 112 -110 18 0 128 -112 128 -130 0 -9 7 -25 15 -36 20 -26 22 -558 3
-571 -26 -15 -87 -11 -112 8 -13 10 -31 19 -39 19 -8 0 -32 16 -53 35 -21 19
-43 35 -49 35 -7 0 -32 11 -56 25 -24 14 -55 30 -69 36 -14 6 -32 14 -40 18
-8 4 -24 26 -35 48 -27 55 -41 70 -73 78 -15 3 -45 25 -67 49 -44 46 -117 86
-157 86 -14 0 -36 8 -49 18 -13 10 -32 21 -41 25 -11 4 -18 17 -18 34 0 35
-39 113 -79 159 -17 19 -31 40 -31 46 0 7 -38 51 -85 99 -52 53 -85 95 -85
107 0 12 -9 26 -19 31 -10 6 -29 30 -40 54 -12 24 -32 54 -46 67 -14 13 -25
31 -25 40 0 10 -9 29 -20 43 -11 14 -20 39 -20 55 0 16 -7 35 -15 42 -11 9
-15 34 -15 97 0 70 -4 89 -20 110 -11 14 -20 40 -20 57 0 17 -7 40 -15 50 -9
12 -15 42 -15 72 0 32 -5 56 -14 63 -7 6 -16 36 -18 66 -3 31 -12 63 -21 73
-13 14 -17 37 -17 89 0 51 -4 74 -15 83 -22 18 -22 342 0 360 12 10 15 40 15
152 0 125 2 143 20 165 19 25 20 41 20 588 0 491 2 564 15 569 12 4 15 31 15
149 0 116 3 147 15 157 10 8 15 30 15 65 0 39 5 56 20 70 13 12 20 31 20 55 0
21 7 43 15 50 10 8 15 30 15 62 0 35 6 58 20 75 14 18 20 41 20 78 0 35 5 57
15 65 10 8 15 30 15 65 0 35 5 57 15 65 10 8 15 30 15 63 0 32 6 57 16 68 9
10 18 37 21 61 3 24 12 47 19 51 8 4 14 17 14 28 0 12 9 32 20 46 11 14 20 31
20 39 0 7 14 25 30 41 17 15 30 37 30 48 0 29 218 245 248 245 12 0 25 7 28
15 4 9 19 15 40 15 20 0 47 9 64 21 17 13 37 20 49 16 12 -3 31 3 45 14 13 10
37 19 53 19 16 0 38 7 51 15 12 9 37 17 57 19 19 1 41 8 47 14 7 7 21 12 32
12 19 0 19 -6 13 -172z m833 121 c8 1 47 1 85 0 51 0 72 -5 78 -15 7 -12 28
-15 104 -13 81 2 97 0 105 -14 7 -14 25 -17 102 -17 71 0 97 -4 106 -15 9 -11
32 -15 83 -15 52 0 73 -4 81 -16 7 -9 28 -15 53 -16 28 0 48 -7 59 -19 9 -11
25 -19 34 -19 9 0 25 -9 35 -20 10 -12 24 -19 31 -16 14 5 98 -70 216 -190 41
-43 80 -74 91 -74 11 0 46 -25 78 -55 32 -30 64 -55 72 -55 8 0 61 -45 117
-100 61 -61 109 -100 121 -100 24 0 58 -37 59 -62 0 -9 22 -38 49 -63 28 -26
53 -60 56 -75 4 -16 13 -34 21 -41 8 -6 14 -19 14 -29 0 -10 7 -23 15 -30 8
-7 15 -20 15 -30 0 -9 9 -27 20 -40 11 -13 20 -31 20 -40 0 -10 7 -23 15 -30
8 -7 15 -21 15 -31 0 -11 9 -27 20 -36 11 -10 20 -25 20 -33 0 -9 7 -25 15
-36 8 -10 15 -26 15 -35 0 -9 9 -24 20 -34 11 -10 20 -26 20 -35 0 -9 7 -25
15 -36 8 -11 15 -41 15 -70 0 -33 5 -56 15 -64 13 -11 15 -55 15 -283 0 -248
2 -272 19 -301 16 -26 19 -50 19 -144 -1 -91 2 -116 16 -130 25 -29 23 -195
-3 -229 -17 -20 -20 -39 -18 -122 1 -81 -2 -102 -16 -115 -9 -10 -17 -31 -17
-48 0 -16 -9 -42 -21 -56 -12 -16 -18 -34 -15 -48 4 -13 -2 -31 -14 -47 -11
-14 -20 -33 -20 -44 0 -10 -9 -24 -20 -31 -11 -7 -20 -20 -20 -30 0 -10 -22
-40 -50 -67 -27 -26 -50 -58 -52 -69 -2 -12 -9 -20 -16 -19 -6 2 -12 -3 -12
-11 0 -8 -18 -27 -39 -43 -22 -15 -42 -37 -45 -47 -4 -17 -7 -18 -22 -5 -15
12 -17 12 -12 -1 3 -9 -15 -34 -44 -64 -27 -27 -52 -62 -55 -77 -3 -16 -10
-29 -16 -29 -13 0 -47 -30 -47 -41 0 -5 7 -6 15 -3 10 4 15 0 15 -11 0 -11 -5
-15 -14 -12 -15 6 -30 -18 -21 -33 7 -11 -15 -27 -48 -35 -28 -7 -39 8 -13 18
7 3 16 15 19 26 4 18 1 21 -23 21 -16 0 -30 -7 -34 -16 -11 -28 -28 -3 -21 32
4 26 2 36 -10 41 -13 5 -14 7 -3 14 11 7 11 9 0 9 -9 0 -4 11 12 31 l27 31
-25 23 c-14 13 -22 26 -19 29 4 3 1 6 -5 6 -7 0 -12 7 -12 15 0 9 6 15 13 14
33 -4 41 1 21 15 -19 15 -19 15 1 31 20 16 19 16 -5 12 -22 -3 -26 1 -28 22
-3 37 -22 81 -36 81 -7 0 -10 14 -8 40 2 22 0 40 -6 40 -16 0 -25 31 -28 102
-1 37 -7 76 -13 87 -6 11 -11 36 -11 55 0 43 -28 106 -48 106 -8 0 -12 -6 -8
-15 3 -10 -1 -15 -13 -15 -16 0 -17 5 -11 40 6 34 5 40 -10 40 -13 0 -17 6
-13 20 3 11 10 20 16 20 7 0 7 4 -1 12 -14 14 -16 105 -2 110 6 2 4 20 -4 48
-11 36 -18 45 -36 45 -23 0 -50 29 -50 52 0 7 7 13 15 13 12 0 13 4 6 19 -6
10 -8 21 -5 24 3 3 -4 10 -15 17 -12 6 -19 15 -16 19 3 5 -2 11 -10 15 -8 3
-15 12 -15 21 0 8 -6 15 -12 16 -10 0 -10 2 0 6 19 7 14 23 -8 23 -13 0 -22 9
-26 25 -3 13 -12 29 -20 36 -8 6 -14 22 -14 35 0 13 -4 24 -10 24 -14 0 -12
28 2 32 7 3 -6 8 -30 11 -40 7 -42 9 -42 42 0 19 -5 35 -11 35 -5 0 -8 4 -4 9
3 5 -6 22 -21 36 -14 14 -25 27 -23 28 2 2 16 9 32 17 33 16 36 47 5 52 -22 3
-56 50 -57 81 -1 19 15 23 21 5 2 -6 4 8 3 31 -1 27 -7 46 -16 51 -9 5 -21 27
-29 50 -7 22 -19 40 -27 40 -9 0 -13 13 -13 40 0 22 5 40 10 40 7 0 7 7 0 20
-6 11 -15 18 -21 15 -13 -8 -11 29 2 42 8 8 8 17 0 31 -14 27 -14 125 0 139
16 16 -10 73 -33 73 -14 0 -18 9 -18 40 0 22 -4 40 -10 40 -6 0 -10 27 -10 60
0 33 4 60 10 60 6 0 10 9 10 21 0 11 -4 17 -10 14 -5 -3 -3 13 5 36 13 36 13
43 0 62 -17 24 -20 58 -5 73 6 6 6 15 0 24 -7 10 -10 11 -10 3 0 -7 -4 -13
-10 -13 -5 0 -10 9 -10 20 0 11 7 20 15 20 8 0 15 5 15 10 0 6 -8 10 -18 10
-15 0 -18 6 -14 30 3 18 0 30 -7 30 -6 0 -11 5 -11 11 0 6 7 9 15 5 8 -3 15
-1 15 4 0 6 -20 20 -45 32 -40 20 -61 48 -35 48 6 0 10 9 10 20 0 11 -4 20
-10 20 -5 0 -10 7 -10 15 0 8 -9 19 -20 25 -11 6 -20 20 -20 30 0 11 -3 20 -8
20 -4 0 -16 19 -26 43 -22 53 -44 77 -68 77 -14 0 -18 8 -18 40 0 30 -5 42
-17 47 -29 11 -43 30 -43 57 0 16 -6 26 -14 26 -8 0 -17 8 -20 18 -3 9 -19 23
-36 30 -19 9 -30 21 -30 34 0 16 -6 19 -37 17 -40 -3 -83 14 -83 33 0 6 11 8
25 6 14 -3 25 -2 25 3 0 4 -19 9 -42 11 -34 2 -44 7 -47 23 -6 33 -36 66 -49
53 -8 -8 -16 -7 -28 3 -16 12 -17 12 -9 -1 7 -12 6 -13 -6 -3 -8 6 -25 13 -39
15 -15 2 -24 9 -22 17 3 12 0 12 -12 2 -10 -8 -16 -9 -21 -1 -3 5 -19 10 -35
10 -16 0 -32 5 -35 10 -3 6 3 10 14 10 11 0 23 5 26 11 4 6 14 7 24 3 9 -3 23
-6 31 -5z m1500 -3849 c0 -5 -4 -10 -10 -10 -5 0 -10 5 -10 10 0 6 5 10 10 10
6 0 10 -4 10 -10z m47 -52 c-3 -8 -6 -5 -6 6 -1 11 2 17 5 13 3 -3 4 -12 1
-19z"/>
<path d="M3710 5810 c0 -5 5 -10 10 -10 6 0 10 5 10 10 0 6 -4 10 -10 10 -5 0
-10 -4 -10 -10z"/>
<path d="M4803 3020 c1 -11 3 -20 5 -20 1 0 12 9 24 20 l22 20 -26 0 c-21 0
-26 -5 -25 -20z"/>
</g>
</svg>
